<?xml version="1.0" encoding="utf-8"?>
<!-- Generator: Adobe Illustrator 23.0.1, SVG Export Plug-In . SVG Version: 6.00 Build 0)  -->
<svg version="1.1" id="Layer_1" xmlns="http://www.w3.org/2000/svg" xmlns:xlink="http://www.w3.org/1999/xlink" x="0px" y="0px"
	 viewBox="0 0 30 30" style="enable-background:new 0 0 30 30;" xml:space="preserve">
<style type="text/css">
	.st0{clip-path:url(#SVGID_2_);}
	.st1{clip-path:url(#SVGID_4_);enable-background:new    ;}
	.st2{clip-path:url(#SVGID_6_);}
	.st3{clip-path:url(#SVGID_8_);}
	.st4{clip-path:url(#SVGID_10_);fill:#006A4E;}
	.st5{clip-path:url(#SVGID_12_);}
	.st6{fill:#006A4E;}
</style>
<g>
	<g>
		<defs>
			<rect id="SVGID_1_" x="0.5" y="3.61" width="27.81" height="25.39"/>
		</defs>
		<clipPath id="SVGID_2_">
			<use xlink:href="#SVGID_1_"  style="overflow:visible;"/>
		</clipPath>
		<g class="st0">
			<g>
				<defs>
					<rect id="SVGID_3_" x="-309.2" y="-1915.29" width="454.56" height="2007.32"/>
				</defs>
				<clipPath id="SVGID_4_">
					<use xlink:href="#SVGID_3_"  style="overflow:visible;"/>
				</clipPath>
				<g class="st1">
					<g>
						<g>
							<defs>
								<rect id="SVGID_5_" x="-0.11" y="3.54" width="29.09" height="26.67"/>
							</defs>
							<clipPath id="SVGID_6_">
								<use xlink:href="#SVGID_5_"  style="overflow:visible;"/>
							</clipPath>
							<g class="st2">
								<g>
									<defs>
										<path id="SVGID_7_" d="M27.58,18.52c-0.4,0-0.73,0.32-0.73,0.7v6.25c0,1.17-0.98,2.11-2.19,2.11H4.15
											c-1.21,0-2.19-0.95-2.19-2.11V7.13c0-1.17,0.98-2.11,2.19-2.11h6.49c0.4,0,0.73-0.32,0.73-0.7c0-0.39-0.33-0.7-0.73-0.7
											H4.15C2.13,3.62,0.5,5.2,0.5,7.14v18.35C0.5,27.42,2.14,29,4.15,29h20.51c2.02,0,3.65-1.58,3.65-3.52v-6.25
											C28.31,18.84,27.99,18.52,27.58,18.52"/>
									</defs>
									<clipPath id="SVGID_8_">
										<use xlink:href="#SVGID_7_"  style="overflow:visible;"/>
									</clipPath>
									<g class="st3">
										<g>
											<defs>
												<rect id="SVGID_9_" x="-0.11" y="3.54" width="29.09" height="25.46"/>
											</defs>
											<clipPath id="SVGID_10_">
												<use xlink:href="#SVGID_9_"  style="overflow:visible;"/>
											</clipPath>
											<rect x="-5.56" y="-2.45" class="st4" width="39.93" height="37.51"/>
										</g>
									</g>
								</g>
							</g>
						</g>
					</g>
				</g>
			</g>
		</g>
	</g>
</g>
<g>
	<g>
		<defs>
			<path id="SVGID_11_" d="M27.84,2.05c-1.23-1.23-3.24-1.23-4.47,0L10.84,14.58c-0.09,0.09-0.15,0.19-0.18,0.31l-1.65,5.95
				c-0.07,0.24,0,0.51,0.18,0.68c0.18,0.18,0.44,0.25,0.68,0.18l5.95-1.65c0.12-0.03,0.22-0.09,0.31-0.18L28.67,7.34
				c1.23-1.24,1.23-3.24,0-4.47L27.84,2.05z M12.37,15.03L23.62,3.78l3.31,3.31L15.68,18.34L12.37,15.03z M12.37,15.03l3.31,3.31
				l-4.98,1.67L12.37,15.03z M27.67,6.35l-0.75,0.74l-3.31-3.31l0.75-0.74c0.69-0.69,1.8-0.69,2.48,0l0.82,0.82
				C28.36,4.55,28.36,5.66,27.67,6.35z"/>
		</defs>
		<clipPath id="SVGID_12_">
			<use xlink:href="#SVGID_11_"  style="overflow:visible;"/>
		</clipPath>
		<g class="st5">
			<g>
				<rect x="2.92" y="-4.94" class="st6" width="32.73" height="32.73"/>
			</g>
		</g>
	</g>
</g>
</svg>
