<?xml version="1.0" encoding="utf-8"?>
<!-- Generator: Adobe Illustrator 23.0.3, SVG Export Plug-In . SVG Version: 6.00 Build 0)  -->
<svg version="1.1" id="Layer_1" xmlns="http://www.w3.org/2000/svg" xmlns:xlink="http://www.w3.org/1999/xlink" x="0px" y="0px"
	 viewBox="0 0 14.11 19.43" style="enable-background:new 0 0 14.11 19.43;" xml:space="preserve">
<style type="text/css">
	.st0{fill:#006D52;}
</style>
<g>
	<g>
		<path class="st0" d="M7.05,3.59c0.33,0,0.59,0.27,0.59,0.59V5.2c0,0.24,0.16,0.45,0.39,0.52C9.47,6.15,10.48,7.5,10.48,9v1.42
			c0,0.97,0.26,1.93,0.76,2.76l0.74,1.23H2.12l0.74-1.23c0.5-0.83,0.76-1.79,0.76-2.76V9c0-1.5,1.01-2.85,2.45-3.28
			C6.3,5.65,6.46,5.44,6.46,5.2V4.18C6.46,3.85,6.73,3.59,7.05,3.59 M7.05,3.05c-0.63,0-1.13,0.51-1.13,1.13V5.2
			C4.28,5.69,3.09,7.21,3.09,9v1.42c0,0.87-0.24,1.73-0.69,2.48l-0.97,1.62c-0.05,0.09-0.05,0.2,0,0.29
			c0.05,0.09,0.14,0.14,0.25,0.14h10.77c0.1,0,0.2-0.05,0.25-0.14c0.05-0.09,0.05-0.2,0-0.29l-0.97-1.62
			c-0.45-0.75-0.69-1.61-0.69-2.48V9c0-1.79-1.2-3.31-2.83-3.8V4.18C8.19,3.56,7.68,3.05,7.05,3.05L7.05,3.05z"/>
	</g>
	<g>
		<g>
			<path class="st0" d="M5.58,15.32c0.26,0.63,0.82,1.06,1.47,1.06s1.21-0.44,1.47-1.06H5.58z"/>
		</g>
	</g>
</g>
</svg>
