<?xml version="1.0" encoding="utf-8"?>
<!-- Generator: Adobe Illustrator 23.0.3, SVG Export Plug-In . SVG Version: 6.00 Build 0)  -->
<svg version="1.1" id="Layer_1" xmlns="http://www.w3.org/2000/svg" xmlns:xlink="http://www.w3.org/1999/xlink" x="0px" y="0px"
	 viewBox="0 0 14.11 19.43" style="enable-background:new 0 0 14.11 19.43;" xml:space="preserve">
<style type="text/css">
	.st0{fill:#016F54;}
</style>
<g>
	<polygon class="st0" points="6.79,8.49 3.06,8.49 4.48,2.62 8.56,2.6 7.43,6.02 11.34,6.02 5.21,15.3 	"/>
	<path class="st0" d="M7.86,3.1L6.74,6.52h3.67l-4.09,6.19l1.09-4.72H3.69l1.18-4.87L7.86,3.1 M9.25,2.09L7.86,2.1L4.87,2.12
		L4.09,2.13L3.9,2.89L2.72,7.76l-0.3,1.24h1.27h2.46l-0.81,3.49l-1.25,5.4l3.06-4.63l4.09-6.19l1.02-1.55h-1.86H8.12l0.69-2.11
		L9.25,2.09L9.25,2.09z"/>
</g>
</svg>
