<?xml version="1.0" encoding="utf-8"?>
<!-- Generator: Adobe Illustrator 23.0.3, SVG Export Plug-In . SVG Version: 6.00 Build 0)  -->
<svg version="1.1" id="Layer_1" xmlns="http://www.w3.org/2000/svg" xmlns:xlink="http://www.w3.org/1999/xlink" x="0px" y="0px"
	 viewBox="0 0 14.11 19.43" style="enable-background:new 0 0 14.11 19.43;" xml:space="preserve">
<style type="text/css">
	.st0{fill-rule:evenodd;clip-rule:evenodd;fill:#066B4E;}
</style>
<g id="AURORA">
	<g transform="translate(-332.000000, -61.000000)">
		<g id="Top_Menu">
			<g id="Menu" transform="translate(332.000000, 61.000000)">
				<path id="Rectangle" class="st0" d="M1.61,13.12H12.5c0.13,0,0.23,0.1,0.23,0.23v0.91c0,0.13-0.1,0.23-0.23,0.23H1.61
					c-0.13,0-0.23-0.1-0.23-0.23v-0.91C1.38,13.22,1.49,13.12,1.61,13.12z"/>
				<path class="st0" d="M1.61,9.04H12.5c0.13,0,0.23,0.1,0.23,0.23v0.91c0,0.13-0.1,0.23-0.23,0.23H1.61
					c-0.13,0-0.23-0.1-0.23-0.23V9.26C1.38,9.14,1.49,9.04,1.61,9.04z"/>
				<path class="st0" d="M1.61,4.95H12.5c0.13,0,0.23,0.1,0.23,0.23v0.91c0,0.13-0.1,0.23-0.23,0.23H1.61
					c-0.13,0-0.23-0.1-0.23-0.23V5.18C1.38,5.06,1.49,4.95,1.61,4.95z"/>
			</g>
		</g>
	</g>
</g>
</svg>
