<svg xmlns="http://www.w3.org/2000/svg" width="263" height="34" viewBox="0 0 263 34">
    <g fill="none" fill-rule="evenodd">
        <g fill="#FEFEFE">
            <path d="M102.53.598h29.384l-.015 7.166h-21.204l.02 5.29h19.116v7.206h-19.116v5.728h21.208l-.006 7.507H102.53zM90.572 10.736c-.147 1.085-1.244 2.263-2.618 2.263l-11.437.003V7.72H87.96c1.368 0 2.437.992 2.612 2.296v.72zM86.129.498H68.407v32.996h8.138v-13.35l8.961-.01c2.569.038 4.563 2.115 4.563 4.673v8.66l7.966-.006-.012-10.647c0-4.935-4.829-6.39-4.829-6.39s4.935-1.458 4.935-7.29c0-7.138-6.21-8.636-12-8.636zM54.983 13.08l-11.46.021-.01-5.424H55.05l.043.008c1.301.23 2.248 1.337 2.248 2.634 0 1.328-1.015 2.58-2.358 2.762m-.487 12.722H43.512v-5.525h11.252l.027.004c1.399.16 2.46 1.322 2.46 2.706 0 1.507-1.255 2.794-2.755 2.815m5.352-9.313c4.206-1.396 4.97-4.925 4.958-7.8C64.797 4.298 61.696.5 52.516.5L35.383.498v32.996h17.09c9.234 0 12.632-4.738 12.632-9.485 0-5.748-5.257-7.52-5.257-7.52M30.406 25.558c-.115.002-10.84.213-14.543-.153-5.962-.593-8.075-5.067-8.075-8.718 0-4.555 3.065-7.904 7.811-8.534 2.26-.3 14.61-.158 14.741-.156l.258.002.025-7.5h-.259L16.386.523C14.83.62 12.25.778 9.606 1.872A16.643 16.643 0 0 0 3.211 7.11 16.527 16.527 0 0 0 0 16.945c0 1.122.089 2.234.266 3.303 1.005 5 4.244 9.141 8.885 11.367 1.566.698 3.983 1.537 8.858 1.815l2.628.053c0 .002 9.743.011 9.743.011h.257l.028-7.94-.259.004z"/>
        </g>
        <text fill="#FFF" font-family="Hind-Light, Hind" font-size="35.31" font-weight="300" letter-spacing="-.847" transform="translate(0 -16)">
            <tspan x="149.027" y="43.621">Harbour</tspan>
        </text>
    </g>
</svg>
