<?xml version="1.0" encoding="utf-8"?>
<!-- Generator: Adobe Illustrator 23.0.1, SVG Export Plug-In . SVG Version: 6.00 Build 0)  -->
<svg version="1.1" id="Layer_1" xmlns="http://www.w3.org/2000/svg" xmlns:xlink="http://www.w3.org/1999/xlink" x="0px" y="0px"
	 viewBox="0 0 30 30" style="enable-background:new 0 0 30 30;" xml:space="preserve">
<style type="text/css">
	.st0{fill:#016A4D;}
</style>
<g id="AURORA">
	<g transform="translate(-29.000000, -1581.000000)">
		<g id="Bottom_Menu" transform="translate(0.000000, 1565.000000)">
			<g id="Dashboard" transform="translate(29.000000, 16.000000)">
				<g id="Rectangle">
					<path class="st0" d="M28.68,29.78l-11.81,0c-0.64,0-1.16-0.52-1.16-1.16l0-11.81c0-0.64,0.52-1.16,1.16-1.16l11.81,0
						c0.64,0,1.16,0.52,1.16,1.16l0,11.81C29.84,29.26,29.32,29.78,28.68,29.78z M16.87,16.68c-0.07,0-0.13,0.06-0.13,0.13l0,11.81
						c0,0.07,0.06,0.13,0.13,0.13h11.81c0.07,0,0.13-0.06,0.13-0.13l0-11.81c0-0.07-0.06-0.13-0.13-0.13H16.87z"/>
				</g>
				<g>
					<path class="st0" d="M13.13,29.78l-11.81,0c-0.64,0-1.16-0.52-1.16-1.16l0-11.81c0-0.64,0.52-1.16,1.16-1.16l11.81,0
						c0.64,0,1.16,0.52,1.16,1.16l0,11.81C14.29,29.26,13.77,29.78,13.13,29.78z M1.32,16.68c-0.07,0-0.13,0.06-0.13,0.13l0,11.81
						c0,0.07,0.06,0.13,0.13,0.13h11.81c0.07,0,0.13-0.06,0.13-0.13l0-11.81c0-0.07-0.06-0.13-0.13-0.13H1.32z"/>
				</g>
				<g>
					<path class="st0" d="M28.68,14.23l-11.81,0c-0.64,0-1.16-0.52-1.16-1.16l0-11.81c0-0.64,0.52-1.16,1.16-1.16l11.81,0
						c0.64,0,1.16,0.52,1.16,1.16l0,11.81C29.84,13.71,29.32,14.23,28.68,14.23z M16.87,1.13c-0.07,0-0.13,0.06-0.13,0.13l0,11.81
						c0,0.07,0.06,0.13,0.13,0.13l11.81,0c0.07,0,0.13-0.06,0.13-0.13l0-11.81c0-0.07-0.06-0.13-0.13-0.13L16.87,1.13z"/>
				</g>
				<g>
					<path class="st0" d="M13.13,14.23l-11.81,0c-0.64,0-1.16-0.52-1.16-1.16l0-11.81c0-0.64,0.52-1.16,1.16-1.16l11.81,0
						c0.64,0,1.16,0.52,1.16,1.16l0,11.81C14.29,13.71,13.77,14.23,13.13,14.23z M1.32,1.13c-0.07,0-0.13,0.06-0.13,0.13l0,11.81
						c0,0.07,0.06,0.13,0.13,0.13l11.81,0c0.07,0,0.13-0.06,0.13-0.13l0-11.81c0-0.07-0.06-0.13-0.13-0.13L1.32,1.13z"/>
				</g>
			</g>
		</g>
	</g>
</g>
</svg>
