<svg width="34" height="24" viewBox="0 0 34 24" fill="none" xmlns="http://www.w3.org/2000/svg">
<path d="M17 3.75C22.685 3.75 27.755 6.945 30.23 12C27.755 17.055 22.685 20.25 17 20.25C11.315 20.25 6.245 17.055 3.77 12C6.245 6.945 11.315 3.75 17 3.75ZM17 0.75C9.5 0.75 3.095 5.415 0.5 12C3.095 18.585 9.5 23.25 17 23.25C24.5 23.25 30.905 18.585 33.5 12C30.905 5.415 24.5 0.75 17 0.75ZM17 8.25C19.07 8.25 20.75 9.93 20.75 12C20.75 14.07 19.07 15.75 17 15.75C14.93 15.75 13.25 14.07 13.25 12C13.25 9.93 14.93 8.25 17 8.25ZM17 5.25C13.28 5.25 10.25 8.28 10.25 12C10.25 15.72 13.28 18.75 17 18.75C20.72 18.75 23.75 15.72 23.75 12C23.75 8.28 20.72 5.25 17 5.25Z" fill="#003f2d"/>
</svg>
