<svg width="28" height="32" viewBox="0 0 28 32" fill="none" xmlns="http://www.w3.org/2000/svg">
<path d="M24.5 0.25H3.5C1.835 0.25 0.5 1.6 0.5 3.25V24.25C0.5 25.9 1.835 27.25 3.5 27.25H9.5L14 31.75L18.5 27.25H24.5C26.15 27.25 27.5 25.9 27.5 24.25V3.25C27.5 1.6 26.15 0.25 24.5 0.25ZM24.5 24.25H17.255L14 27.505L10.745 24.25H3.5V3.25H24.5V24.25ZM12.5 19.75H15.5V22.75H12.5V19.75ZM14 7.75C15.65 7.75 17 9.1 17 10.75C17 13.75 12.5 13.375 12.5 18.25H15.5C15.5 14.875 20 14.5 20 10.75C20 7.435 17.315 4.75 14 4.75C10.685 4.75 8 7.435 8 10.75H11C11 9.1 12.35 7.75 14 7.75Z" fill="#003f2d"/>
</svg>
