<svg width="32" height="30" viewBox="0 0 32 30" fill="none" xmlns="http://www.w3.org/2000/svg">
<path d="M8.09501 12.84L9.68501 11.25L8.09501 9.66L9.68501 8.07L12.865 11.25L9.68501 14.43L8.09501 12.84ZM3.86501 10.5C3.91001 10.5 3.94001 10.515 3.98501 10.515C5.77001 6.105 10.075 3 15.115 3C18.4 3 21.355 4.32 23.53 6.45C23.755 5.55 24.205 4.515 24.745 3.51C22.135 1.32 18.775 0 15.1 0C7.78001 0 1.69001 5.265 0.38501 12.21C1.22501 11.16 2.50001 10.5 3.86501 10.5ZM28.615 12.75C27.985 12.75 27.385 12.615 26.83 12.42C27.01 13.245 27.115 14.115 27.115 15C27.115 21.63 21.745 27 15.115 27C10.075 27 5.77001 23.895 3.98501 19.485C3.94001 19.485 3.91001 19.5 3.86501 19.5C3.08501 19.5 2.30501 19.29 1.61501 18.9C1.13501 18.63 0.73001 18.27 0.38501 17.85C1.72001 24.765 7.78001 30 15.085 30C23.395 30 30.115 23.28 30.115 15C30.115 14.175 30.025 13.365 29.905 12.57C29.485 12.675 29.065 12.75 28.615 12.75ZM28.615 1.5C28.615 1.5 25.615 5.85 25.615 7.5C25.615 9.15 26.965 10.5 28.615 10.5C30.265 10.5 31.615 9.15 31.615 7.5C31.615 5.85 28.615 1.5 28.615 1.5ZM20.545 8.07L17.365 11.25L20.545 14.43L22.135 12.84L20.545 11.25L22.135 9.66L20.545 8.07ZM9.95501 22.5C10.99 20.715 12.91 19.5 15.115 19.5C17.32 19.5 19.24 20.715 20.275 22.5H22.795C21.595 19.425 18.61 17.25 15.115 17.25C13.81 17.25 12.565 17.55 11.47 18.105L6.10001 15C6.10001 14.22 5.71001 13.47 4.99001 13.065C3.91001 12.45 2.54501 12.81 1.91501 13.89C1.30001 14.97 1.66001 16.335 2.74001 16.965C3.46001 17.385 4.31501 17.34 4.97501 16.965L9.43001 19.545C8.57501 20.34 7.88501 21.36 7.43501 22.5H9.95501Z" fill="#003f2d"/>
</svg>
