<svg xmlns="http://www.w3.org/2000/svg" width="38" height="38" viewBox="0 0 38 38">
    <g fill="#00AD4D" fill-rule="nonzero">
        <path d="M36.36 16.557a.916.916 0 0 0-1.445 1.127c.306.392.306.94 0 1.332a20.125 20.125 0 0 1-8.406 6.339 10.233 10.233 0 0 0 2.766-7.005c0-2.693-1.042-5.148-2.743-6.981a20.107 20.107 0 0 1 5.832 3.6.916.916 0 0 0 1.215-1.372A22.043 22.043 0 0 0 19 8.075c-6.828 0-13.156 3.092-17.36 8.482a2.912 2.912 0 0 0 0 3.586c4.204 5.39 10.532 8.482 17.36 8.482 6.828 0 13.156-3.091 17.36-8.482a2.912 2.912 0 0 0 0-3.586zm-33.275 2.46a1.082 1.082 0 0 1 0-1.333 20.124 20.124 0 0 1 8.405-6.338 10.234 10.234 0 0 0-2.765 7.004c0 2.704 1.05 5.167 2.765 7.004a20.123 20.123 0 0 1-8.405-6.338zm15.926 7.776h-.022c-4.65-.006-8.432-3.791-8.432-8.443 0-4.652 3.781-8.437 8.432-8.443H19.009c4.651.005 8.434 3.79 8.434 8.443 0 4.652-3.781 8.437-8.432 8.443z"/>
        <path d="M19 14.462a3.892 3.892 0 0 0-3.888 3.888A3.892 3.892 0 0 0 19 22.238a3.892 3.892 0 0 0 3.888-3.888A3.892 3.892 0 0 0 19 14.462zm0 5.943a2.058 2.058 0 0 1-2.055-2.055c0-1.133.922-2.055 2.055-2.055s2.056.922 2.056 2.055A2.058 2.058 0 0 1 19 20.405z"/>
    </g>
</svg>
