<svg xmlns="http://www.w3.org/2000/svg" width="38" height="38" viewBox="0 0 38 38">
    <g fill="#00AD4D" fill-rule="nonzero">
        <path d="M32.44 10.348c-.437 0-.79.332-.79.742v25.426H6.58V35.03c0-.41-.354-.742-.79-.742-.437 0-.79.332-.79.742v2.227c0 .41.353.742.79.742h26.65c.435 0 .789-.332.789-.742V11.09c0-.41-.354-.742-.79-.742zM32.44 2.184h-6.6V.742c0-.41-.353-.742-.79-.742H13.179c-.436 0-.79.332-.79.742v1.442H5.79c-.437 0-.79.332-.79.742v26.167c0 .41.353.743.79.743.436 0 .79-.333.79-.743V3.668h5.808v1.441c0 .41.354.743.79.743H25.05c.436 0 .79-.333.79-.743V3.668h5.809v1.485c0 .41.353.742.79.742.435 0 .789-.333.789-.742V2.926c0-.41-.354-.742-.79-.742zM24.26 4.367H13.967V1.484h10.294v2.883z"/>
        <path d="M14.371 9.22H9.855c-.436 0-.79.332-.79.742v4.246c0 .41.354.742.79.742h4.516c.437 0 .79-.332.79-.742V9.962c0-.41-.353-.742-.79-.742zm-.79 4.246h-2.937v-2.762h2.938v2.762zM9.065 22.498c0 .41.354.742.79.742h4.516c.437 0 .79-.332.79-.742v-4.246c0-.41-.353-.742-.79-.742H9.855c-.436 0-.79.332-.79.742v4.246zm1.58-3.504h2.937v2.762h-2.938v-2.762zM11.78 29.556l-1.367-1.284a.825.825 0 0 0-1.117 0 .71.71 0 0 0 0 1.05l1.926 1.809a.813.813 0 0 0 .558.217.813.813 0 0 0 .558-.217l3.85-3.619a.712.712 0 0 0 0-1.05.826.826 0 0 0-1.116 0l-3.292 3.094zM18.502 12.827h9.143c.437 0 .79-.332.79-.742s-.353-.742-.79-.742h-9.143c-.436 0-.79.332-.79.742s.354.742.79.742zM18.502 21.623h9.143c.437 0 .79-.333.79-.743s-.353-.742-.79-.742h-9.143c-.436 0-.79.332-.79.742s.354.743.79.743zM18.502 30.418h9.143c.437 0 .79-.332.79-.742s-.353-.743-.79-.743h-9.143c-.436 0-.79.333-.79.743s.354.742.79.742zM5.79 32.804c.434 0 .79-.333.79-.742s-.356-.742-.79-.742c-.435 0-.79.333-.79.742 0 .41.355.742.79.742zM32.44 7.38c-.436 0-.79.332-.79.741 0 .41.354.743.79.743.434 0 .789-.334.789-.743s-.355-.742-.79-.742z"/>
    </g>
</svg>
