<svg xmlns="http://www.w3.org/2000/svg" width="38" height="38" viewBox="0 0 38 38">
    <g fill="#00AD4D" fill-rule="nonzero">
        <path d="M25.68 23.676a.742.742 0 0 0-.742.742v5.121a3.715 3.715 0 0 1-3.711 3.711h-8.014a.742.742 0 0 0-.742.742v1.475l-1.772-1.771a.742.742 0 0 0-.681-.446H5.195a3.715 3.715 0 0 1-3.71-3.71V18.11a3.715 3.715 0 0 1 3.71-3.712h7.496a.742.742 0 0 0 0-1.484H5.195A5.201 5.201 0 0 0 0 18.11v11.43a5.201 5.201 0 0 0 5.195 5.195h4.443l3.048 3.049a.742.742 0 0 0 1.267-.525l.002-2.524h7.272a5.201 5.201 0 0 0 5.195-5.195v-5.121a.742.742 0 0 0-.742-.742z"/>
        <path d="M27.213 0h-1.879c-5.948 0-10.787 4.84-10.787 10.787 0 5.949 4.84 10.788 10.787 10.788h1.879c.928 0 1.847-.118 2.738-.351l2.774 2.773a.742.742 0 0 0 1.267-.525v-4.294a10.89 10.89 0 0 0 2.836-3.496A10.671 10.671 0 0 0 38 10.787C38 4.84 33.16 0 27.213 0zm5.59 18.223a.742.742 0 0 0-.295.593v2.865l-1.816-1.815a.742.742 0 0 0-.743-.185 9.306 9.306 0 0 1-2.736.41h-1.879c-5.13 0-9.303-4.174-9.303-9.304s4.174-9.303 9.303-9.303h1.879c5.13 0 9.303 4.174 9.303 9.303a9.234 9.234 0 0 1-3.713 7.436z"/>
        <path d="M29.616 8.121a3.15 3.15 0 0 0-2.914-2.913 3.118 3.118 0 0 0-2.365.837 3.153 3.153 0 0 0-.998 2.297.742.742 0 0 0 1.484 0c0-.464.188-.895.527-1.212a1.659 1.659 0 1 1 1.495 2.83 1.405 1.405 0 0 0-1.106 1.377v1.783a.742.742 0 0 0 1.484 0v-1.724a3.126 3.126 0 0 0 2.393-3.275zM27.006 15.531a.748.748 0 0 0-.525-.217.748.748 0 0 0-.524.217.748.748 0 0 0-.218.525c0 .196.08.387.218.525a.747.747 0 0 0 1.049 0 .75.75 0 0 0 .217-.525.748.748 0 0 0-.217-.525zM20.41 23.008H4.75a.742.742 0 0 0 0 1.484h15.66a.742.742 0 1 0 0-1.484zM20.935 27.382a.747.747 0 0 0-.525-.218.748.748 0 0 0-.525.218.747.747 0 0 0-.217.524c0 .195.08.387.217.525.138.138.33.217.525.217s.387-.079.525-.217a.746.746 0 0 0 .217-.525.748.748 0 0 0-.217-.524zM17.49 27.164H4.75a.742.742 0 0 0 0 1.484h12.74a.742.742 0 1 0 0-1.484zM15.586 18.852H4.75a.742.742 0 0 0 0 1.484h10.836a.742.742 0 1 0 0-1.484z"/>
    </g>
</svg>
