<svg xmlns="http://www.w3.org/2000/svg" width="38" height="38" viewBox="0 0 38 38">
    <g fill="#00AD4D" fill-rule="nonzero">
        <path d="M37.258 15.493h-4.75a.742.742 0 0 0-.742.742v3.748a.742.742 0 0 0 1.484 0v-3.006h3.266v19.539H33.25V25.55a.742.742 0 0 0-1.484 0v10.966H30.28V21.152a.742.742 0 0 0-.742-.742h-4.75a.742.742 0 0 0-.742.742v15.364h-1.485V26.348a.742.742 0 0 0-.742-.743h-4.75a.742.742 0 0 0-.742.743v10.168h-1.484v-5.91a.742.742 0 0 0-.742-.742h-4.75a.742.742 0 0 0-.743.742v5.91H2.227a.743.743 0 0 1-.743-.743V2.227c0-.41.333-.743.743-.743h19.146v4.899A2.23 2.23 0 0 0 23.6 8.61h4.898v9.128a.742.742 0 0 0 1.485 0v-9.87a.742.742 0 0 0-.218-.525L22.64.217A.742.742 0 0 0 22.115 0H2.227A2.23 2.23 0 0 0 0 2.227v33.546A2.23 2.23 0 0 0 2.227 38h35.03c.41 0 .743-.332.743-.742V16.235a.742.742 0 0 0-.742-.742zm-14.4-12.959l4.59 4.591H23.6a.743.743 0 0 1-.742-.742V2.534zm-9.499 33.982h-3.265v-5.168h3.265v5.168zm7.72 0h-3.267V27.09h3.266v9.426zm7.718 0H25.53V21.895h3.266v14.62z"/>
        <path d="M33.033 22.104a.745.745 0 0 0-1.05 0 .748.748 0 0 0-.217.525c0 .195.079.386.217.524s.33.218.525.218.386-.08.525-.218a.748.748 0 0 0 .217-.524.748.748 0 0 0-.217-.525zM10.805 4.062a.742.742 0 0 0-.743.742V6.14c-3.416.371-6.084 3.273-6.084 6.786a6.834 6.834 0 0 0 6.827 6.827c3.513 0 6.415-2.668 6.786-6.084h1.335c.41 0 .742-.333.742-.743 0-4.887-3.976-8.863-8.863-8.863zm0 14.205a5.348 5.348 0 0 1-5.342-5.342 5.35 5.35 0 0 1 4.6-5.29v5.29c0 .41.332.743.742.743h5.29a5.35 5.35 0 0 1-5.29 4.6zm.742-6.084v-6.6a7.393 7.393 0 0 1 6.6 6.6h-6.6zM18.926 21.839H4.75a.742.742 0 0 0 0 1.484h14.176a.742.742 0 0 0 0-1.484zM9.5 25.42H4.75a.742.742 0 0 0 0 1.484H9.5a.742.742 0 0 0 0-1.484zM13.742 25.637a.748.748 0 0 0-.525-.217.746.746 0 0 0-.742.742.744.744 0 0 0 .742.742c.195 0 .387-.08.525-.217a.747.747 0 0 0 .217-.525.748.748 0 0 0-.217-.525z"/>
    </g>
</svg>
