<svg xmlns="http://www.w3.org/2000/svg" width="38" height="38" viewBox="0 0 38 38">
    <g fill="#929292" fill-rule="nonzero">
        <path d="M37.534 35.783L19.444 2.384a.718.718 0 0 0-.63-.384c-.26 0-.5.147-.629.384L.095 35.783a.792.792 0 0 0 .003.757c.13.233.368.377.626.377h36.18a.718.718 0 0 0 .626-.377.792.792 0 0 0 .004-.757zm-35.567-.384l.822-1.518h3c.4 0 .724-.34.724-.76 0-.418-.324-.758-.724-.758H3.612L18.814 4.296l16.847 31.103H1.967z"/>
        <path d="M8.669 32.973a.743.743 0 0 0-.108-.273.708.708 0 0 0-.878-.28.702.702 0 0 0-.235.165.767.767 0 0 0-.212.537c0 .2.078.395.212.536a.694.694 0 0 0 .235.164.658.658 0 0 0 .277.059.712.712 0 0 0 .601-.338.786.786 0 0 0 .108-.57zM18.814 14.145c-1.197 0-2.17 1.022-2.17 2.277v8.16c0 .942.73 1.708 1.627 1.708h1.086c.898 0 1.628-.766 1.628-1.708v-8.16c0-1.255-.974-2.277-2.17-2.277zm.724 10.437c0 .105-.081.19-.181.19h-1.085c-.1 0-.181-.085-.181-.19v-8.16c0-.418.324-.759.723-.759.4 0 .724.34.724.76v8.16zM18.814 27.808c-1.197 0-2.17 1.022-2.17 2.277 0 1.256.973 2.278 2.17 2.278s2.171-1.022 2.171-2.278c0-1.255-.974-2.277-2.17-2.277zm0 3.036c-.399 0-.723-.34-.723-.759 0-.418.324-.759.723-.759.4 0 .724.34.724.76 0 .418-.325.758-.724.758z"/>
    </g>
</svg>
