<?xml version="1.0" encoding="utf-8"?>
<!-- Generator: Adobe Illustrator 23.0.1, SVG Export Plug-In . SVG Version: 6.00 Build 0)  -->
<svg version="1.1" id="Layer_1" xmlns="http://www.w3.org/2000/svg" xmlns:xlink="http://www.w3.org/1999/xlink" x="0px" y="0px"
	 viewBox="0 0 431 40" style="enable-background:new 0 0 431 40;" xml:space="preserve">
<style type="text/css">
	.st0{fill:#006A4D;}
</style>
<g>
	<path class="st0" d="M15.8,3.3c7.6,0,12.55,4.8,12.55,11.15c0,7.8-5.9,11.65-12.55,11.65h-3.9V37H4.2V3.3H15.8z M14.45,20
		c4.45,0,6.1-2.2,6.1-5.55c0-3-1.65-5-5.65-5h-3V20H14.45z"/>
	<path class="st0" d="M42.4,25.3h-2.35V37h-7.7V3.3H44c7.6,0,12.5,4.45,12.5,10.8c0,5.15-2.55,8.35-6.15,9.95L58.9,37h-9.2
		L42.4,25.3z M40.05,19.05h3.65c3.5,0,5-1.7,5-4.9c0-2.9-1.9-4.6-4.85-4.6h-3.8V19.05z"/>
	<path class="st0" d="M78.2,2.75c10.05,0,16.4,6.95,16.4,17.3c0,10.3-6.4,17.3-16.4,17.3c-10.05,0-16.4-6.95-16.4-17.3
		C61.8,9.75,68.2,2.75,78.2,2.75z M78.2,30.35c5,0,8.15-4,8.15-10.3S83.2,9.75,78.2,9.75c-5,0-8.15,4-8.15,10.3
		S73.2,30.35,78.2,30.35z"/>
	<path class="st0" d="M98.1,29.25c1.05,0.65,2.4,1.15,3.85,1.15c2.25,0,3.55-1.15,3.55-3.8V3.35h7.7V26.8
		c0,6.5-3.6,10.25-9.75,10.25c-1.85,0-4.1-0.35-5.35-1V29.25z"/>
	<path class="st0" d="M140.4,30.85V37h-20.95V3.3h20.75v6.15h-13v7.65h11.6v6.1h-11.6v7.65H140.4z"/>
	<path class="st0" d="M171.55,12.15c-3-1.85-5.35-2.3-8.35-2.3c-5.2,0-9.55,3.85-9.55,10.4c0,6.35,4.15,10.1,9.85,10.1
		c2.65,0,5.8-0.8,8.05-2.4v7.55c-2.75,1.7-6.4,1.9-8.8,1.9c-9.7,0-17.35-6.85-17.35-17.15c0-10.25,7-17.4,17.4-17.4
		c2.4,0,6,0.2,8.75,1.9V12.15z"/>
	<path class="st0" d="M199.75,9.5h-8.2V37h-7.75V9.5h-8.25V3.3h24.2V9.5z"/>
	<path class="st0" d="M235.7,37l-4.45-9.8H210.6l-4.45,9.8h-2.7l16.3-35.25h2.5L238.55,37H235.7z M220.95,4.6l-9.25,20.25h18.45
		L220.95,4.6z"/>
	<path class="st0" d="M258.5,37.55c-8.4,0-14.35-5.3-14.35-15.1V2h2.6v20.2c0,8.25,4.45,13,11.85,13c7.1,0,11.65-4.3,11.65-12.75V2
		h2.6v20.15C272.85,32.2,267,37.55,258.5,37.55z"/>
	<path class="st0" d="M307.9,37l-11.15-14.5h-11.45V37h-2.6V2h14.7c7.55,0,12.5,4.1,12.5,9.95v0.1c0,5.85-4.35,9.2-10.25,10
		L311.2,37H307.9z M307.3,12.05c0-4.7-3.7-7.65-10.05-7.65h-11.95v15.75h11.8c5.85,0,10.2-2.95,10.2-8V12.05z"/>
	<path class="st0" d="M334.85,37.6c-10.6,0-17.55-8.45-17.55-18v-0.1c0-9.55,7.05-18.1,17.65-18.1c10.6,0,17.55,8.45,17.55,18
		c0.05,0.05,0.05,0.05,0,0.1C352.5,29.05,345.45,37.6,334.85,37.6z M349.8,19.5c0-8.65-6.3-15.75-14.95-15.75S320,10.75,320,19.4
		v0.1c0,8.65,6.3,15.75,14.95,15.75c8.65,0,14.85-7,14.85-15.65V19.5z"/>
	<path class="st0" d="M386.55,37l-11.15-14.5h-11.45V37h-2.6V2h14.7c7.55,0,12.5,4.1,12.5,9.95v0.1c0,5.85-4.35,9.2-10.25,10
		L389.85,37H386.55z M385.95,12.05c0-4.7-3.7-7.65-10.05-7.65h-11.95v15.75h11.8c5.85,0,10.2-2.95,10.2-8V12.05z"/>
	<path class="st0" d="M426.75,37l-4.45-9.8h-20.65l-4.45,9.8h-2.7l16.3-35.25h2.5L429.6,37H426.75z M411.99,4.6l-9.25,20.25h18.45
		L411.99,4.6z"/>
</g>
</svg>
