<svg width="14" height="18" viewBox="0 0 14 18" fill="none" xmlns="http://www.w3.org/2000/svg">
<path d="M7.00102 17.125C7.91769 17.125 8.66769 16.375 8.66769 15.4583H5.33435C5.33435 16.375 6.07602 17.125 7.00102 17.125ZM12.001 12.125V7.95833C12.001 5.4 10.6344 3.25833 8.25102 2.69167V2.125C8.25102 1.43333 7.69269 0.875 7.00102 0.875C6.30935 0.875 5.75102 1.43333 5.75102 2.125V2.69167C3.35935 3.25833 2.00102 5.39167 2.00102 7.95833V12.125L0.926019 13.2C0.401019 13.725 0.767686 14.625 1.50935 14.625H12.4844C13.226 14.625 13.601 13.725 13.076 13.2L12.001 12.125Z" fill="white"/>
</svg>
