<?xml version="1.0" encoding="utf-8"?>
<!-- Generator: Adobe Illustrator 23.0.1, SVG Export Plug-In . SVG Version: 6.00 Build 0)  -->
<svg version="1.1" id="Layer_1" xmlns="http://www.w3.org/2000/svg" xmlns:xlink="http://www.w3.org/1999/xlink" x="0px" y="0px"
	 viewBox="0 0 30 30" style="enable-background:new 0 0 30 30;" xml:space="preserve">
<style type="text/css">
	.st0{clip-path:url(#SVGID_2_);}
	.st1{clip-path:url(#SVGID_4_);fill:#016A4D;}
	.st2{clip-path:url(#SVGID_6_);}
	.st3{fill:#FFFFFF;}
</style>
<g>
	<g>
		<defs>
			<circle id="SVGID_1_" cx="15" cy="15" r="14.57"/>
		</defs>
		<clipPath id="SVGID_2_">
			<use xlink:href="#SVGID_1_"  style="overflow:visible;"/>
		</clipPath>
		<g class="st0">
			<g>
				<defs>
					<rect id="SVGID_3_" x="-180.7" y="-1642.18" width="390.35" height="1723.8"/>
				</defs>
				<clipPath id="SVGID_4_">
					<use xlink:href="#SVGID_3_"  style="overflow:visible;"/>
				</clipPath>
				<rect x="-4.78" y="-4.78" class="st1" width="39.56" height="39.56"/>
			</g>
		</g>
	</g>
</g>
<g>
	<g>
		<defs>
			<path id="SVGID_5_" d="M15.87,15.87h4.82c0.07,0,0.14-0.06,0.14-0.14v-1.44c0-0.04-0.01-0.07-0.04-0.1
				c-0.03-0.03-0.06-0.04-0.1-0.04h-4.85V9.3c0-0.07-0.06-0.13-0.13-0.13h-1.44c-0.07,0-0.14,0.06-0.14,0.13v4.82H9.31
				c-0.07,0-0.13,0.06-0.13,0.14v1.44c0,0.04,0.01,0.07,0.04,0.1c0.02,0.03,0.06,0.04,0.1,0.04h4.85v4.85
				c0,0.07,0.06,0.14,0.13,0.14h1.44c0.07,0,0.14-0.06,0.14-0.14L15.87,15.87z"/>
		</defs>
		<clipPath id="SVGID_6_">
			<use xlink:href="#SVGID_5_"  style="overflow:visible;"/>
		</clipPath>
		<g class="st2">
			<g>
				<rect x="3.97" y="3.97" class="st3" width="22.07" height="22.07"/>
			</g>
		</g>
	</g>
</g>
</svg>
