<?xml version="1.0" encoding="utf-8"?>
<!-- Generator: Adobe Illustrator 23.0.1, SVG Export Plug-In . SVG Version: 6.00 Build 0)  -->
<svg version="1.1" id="Layer_1" xmlns="http://www.w3.org/2000/svg" xmlns:xlink="http://www.w3.org/1999/xlink" x="0px" y="0px"
	 viewBox="0 0 30 30" style="enable-background:new 0 0 30 30;" xml:space="preserve">
<style type="text/css">
	.st0{clip-path:url(#SVGID_2_);}
	.st1{clip-path:url(#SVGID_4_);fill:#006A4D;}
	.st2{clip-path:url(#SVGID_6_);}
	.st3{clip-path:url(#SVGID_8_);fill:#006A4D;}
	.st4{clip-path:url(#SVGID_10_);}
	.st5{clip-path:url(#SVGID_12_);fill:#006A4D;}
	.st6{clip-path:url(#SVGID_14_);}
	.st7{clip-path:url(#SVGID_16_);fill:#006A4D;}
	.st8{clip-path:url(#SVGID_18_);}
	.st9{clip-path:url(#SVGID_20_);fill:#006A4D;}
	.st10{clip-path:url(#SVGID_22_);}
	.st11{fill:#006A4D;}
</style>
<g>
	<g>
		<defs>
			<path id="SVGID_1_" d="M21.29,11.26H7.57c-0.3,0-0.55,0.28-0.55,0.62s0.25,0.62,0.55,0.62h13.71c0.3,0,0.55-0.28,0.55-0.62
				S21.59,11.26,21.29,11.26"/>
		</defs>
		<clipPath id="SVGID_2_">
			<use xlink:href="#SVGID_1_"  style="overflow:visible;"/>
		</clipPath>
		<g class="st0">
			<g>
				<defs>
					<rect id="SVGID_3_" x="-123.8" y="-1949.96" width="462.84" height="2043.91"/>
				</defs>
				<clipPath id="SVGID_4_">
					<use xlink:href="#SVGID_3_"  style="overflow:visible;"/>
				</clipPath>
				<rect x="0.86" y="5.09" class="st1" width="27.15" height="13.58"/>
			</g>
		</g>
	</g>
</g>
<g>
	<g>
		<defs>
			<path id="SVGID_5_" d="M8.77,7.56h5.14c0.28,0,0.51-0.28,0.51-0.62s-0.23-0.62-0.51-0.62H8.77c-0.28,0-0.51,0.28-0.51,0.62
				S8.49,7.56,8.77,7.56"/>
		</defs>
		<clipPath id="SVGID_6_">
			<use xlink:href="#SVGID_5_"  style="overflow:visible;"/>
		</clipPath>
		<g class="st2">
			<g>
				<defs>
					<rect id="SVGID_7_" x="-123.8" y="-1949.96" width="462.84" height="2043.91"/>
				</defs>
				<clipPath id="SVGID_8_">
					<use xlink:href="#SVGID_7_"  style="overflow:visible;"/>
				</clipPath>
				<rect x="2.09" y="0.15" class="st3" width="18.51" height="13.58"/>
			</g>
		</g>
	</g>
</g>
<g>
	<g>
		<defs>
			<path id="SVGID_9_" d="M21.29,14.96H7.57c-0.3,0-0.55,0.28-0.55,0.62s0.25,0.62,0.55,0.62h13.71c0.3,0,0.55-0.28,0.55-0.62
				S21.59,14.96,21.29,14.96"/>
		</defs>
		<clipPath id="SVGID_10_">
			<use xlink:href="#SVGID_9_"  style="overflow:visible;"/>
		</clipPath>
		<g class="st4">
			<g>
				<defs>
					<rect id="SVGID_11_" x="-123.8" y="-1949.96" width="462.84" height="2043.91"/>
				</defs>
				<clipPath id="SVGID_12_">
					<use xlink:href="#SVGID_11_"  style="overflow:visible;"/>
				</clipPath>
				<rect x="0.86" y="8.79" class="st5" width="27.15" height="13.58"/>
			</g>
		</g>
	</g>
</g>
<g>
	<g>
		<defs>
			<path id="SVGID_13_" d="M21.29,19.9H7.57c-0.3,0-0.55,0.28-0.55,0.62s0.25,0.62,0.55,0.62h13.71c0.3,0,0.55-0.28,0.55-0.62
				C21.84,20.18,21.59,19.9,21.29,19.9"/>
		</defs>
		<clipPath id="SVGID_14_">
			<use xlink:href="#SVGID_13_"  style="overflow:visible;"/>
		</clipPath>
		<g class="st6">
			<g>
				<defs>
					<rect id="SVGID_15_" x="-123.8" y="-1949.96" width="462.84" height="2043.91"/>
				</defs>
				<clipPath id="SVGID_16_">
					<use xlink:href="#SVGID_15_"  style="overflow:visible;"/>
				</clipPath>
				<rect x="0.86" y="13.73" class="st7" width="27.15" height="13.58"/>
			</g>
		</g>
	</g>
</g>
<g>
	<g>
		<defs>
			<path id="SVGID_17_" d="M21.29,23.6H7.57c-0.3,0-0.55,0.28-0.55,0.62s0.25,0.62,0.55,0.62h13.71c0.3,0,0.55-0.28,0.55-0.62
				C21.84,23.88,21.59,23.6,21.29,23.6"/>
		</defs>
		<clipPath id="SVGID_18_">
			<use xlink:href="#SVGID_17_"  style="overflow:visible;"/>
		</clipPath>
		<g class="st8">
			<g>
				<defs>
					<rect id="SVGID_19_" x="-123.8" y="-1949.96" width="462.84" height="2043.91"/>
				</defs>
				<clipPath id="SVGID_20_">
					<use xlink:href="#SVGID_19_"  style="overflow:visible;"/>
				</clipPath>
				<rect x="0.86" y="17.43" class="st9" width="27.15" height="13.58"/>
			</g>
		</g>
	</g>
</g>
<g>
	<g>
		<defs>
			<path id="SVGID_21_" d="M22.96,4.24l-4.14-4.09H3.61c-0.16,0-0.28,0.13-0.28,0.28V26v1.08v2.41c0,0.16,0.13,0.28,0.28,0.28h22.88
				c0.16,0,0.28-0.13,0.28-0.28V8.01l-2.73-2.69L22.96,4.24z M19.14,1.99l4.91,4.85l0.86,0.85h-5.77V1.99z M4.41,28.7v-1.62V1.23
				h13.63v7.54h7.64V28.7H4.41z"/>
		</defs>
		<clipPath id="SVGID_22_">
			<use xlink:href="#SVGID_21_"  style="overflow:visible;"/>
		</clipPath>
		<g class="st10">
			<g>
				<rect x="-2.85" y="-6.02" class="st11" width="35.79" height="41.96"/>
			</g>
		</g>
	</g>
</g>
</svg>
