<?xml version="1.0" encoding="utf-8"?>
<!-- Generator: Adobe Illustrator 23.0.1, SVG Export Plug-In . SVG Version: 6.00 Build 0)  -->
<svg version="1.1" id="Layer_1" xmlns="http://www.w3.org/2000/svg" xmlns:xlink="http://www.w3.org/1999/xlink" x="0px" y="0px"
	 viewBox="0 0 30 30" style="enable-background:new 0 0 30 30;" xml:space="preserve">
<style type="text/css">
	.st0{enable-background:new    ;}
	.st1{clip-path:url(#SVGID_2_);}
	.st2{clip-path:url(#SVGID_4_);fill:#016A4D;}
</style>
<g>
	<g>
		<g class="st0">
			<g>
				<g>
					<defs>
						<path id="SVGID_1_" d="M27.95,27.64l-8.75-8.99c1.77-1.97,2.75-4.51,2.75-7.17c0-5.86-4.7-10.63-10.48-10.63
							C5.7,0.86,1,5.63,1,11.49c0,5.86,4.7,10.63,10.48,10.63c2.25,0,4.4-0.72,6.21-2.07l8.82,9.05c0.19,0.2,0.46,0.3,0.72,0.3
							c0.26,0,0.52-0.1,0.72-0.29c0.19-0.19,0.3-0.45,0.3-0.73C28.25,28.1,28.14,27.84,27.95,27.64 M11.48,2.92
							c4.65,0,8.44,3.84,8.44,8.56c0,4.72-3.79,8.56-8.44,8.56c-4.65,0-8.44-3.84-8.44-8.56C3.04,6.77,6.82,2.92,11.48,2.92"/>
					</defs>
					<clipPath id="SVGID_2_">
						<use xlink:href="#SVGID_1_"  style="overflow:visible;"/>
					</clipPath>
					<g class="st1">
						<defs>
							<rect id="SVGID_3_" x="1" y="0.86" width="27.25" height="28.54"/>
						</defs>
						<clipPath id="SVGID_4_">
							<use xlink:href="#SVGID_3_"  style="overflow:visible;"/>
						</clipPath>
						<rect x="-5.49" y="-5.63" class="st2" width="40.22" height="41.52"/>
					</g>
				</g>
			</g>
		</g>
	</g>
</g>
</svg>
