<?xml version="1.0" encoding="utf-8"?>
<svg version="1.1" xmlns:xlink="http://www.w3.org/1999/xlink" width="10px" height="8px" xmlns="http://www.w3.org/2000/svg">
  <g transform="matrix(1 0 0 1 -8 -8 )">
    <path d="M 9.53558976923077 1.75306664  C 9.58584615384616 1.69973336  9.58584615384616 1.6144  9.53558976923077 1.56106664  L 8.54994869230769 0.536  C 8.52533330769231 0.5104  8.49251284615385 0.496533359999999  8.457641 0.496533359999999  C 8.42379484615385 0.496533359999999  8.38994869230769 0.5104  8.36533330769231 0.536  L 3.48841023076923 5.61226664  L 1.36738461538461 3.42133336  C 1.31815384615385 3.3712  1.232 3.3712  1.18276923076923 3.42133336  L 0.198153846153846 4.44746664  C 0.146871769230769 4.49973336  0.146871769230769 4.58613336  0.198153846153846 4.63946664  L 3.39610253846154 7.94933336  C 3.42071792307692 7.976  3.45353846153846 7.9888  3.48841023076923 7.9888  C 3.52328207692308 7.9888  3.55610253846154 7.976  3.58071792307692 7.94933336  L 9.53558976923077 1.75306664  Z " fill-rule="nonzero" fill="#ffffff" stroke="none" transform="matrix(1 0 0 1 8 8 )" />
  </g>
</svg>